<svg version="1" xmlns="http://www.w3.org/2000/svg" width="682.667" height="682.667" viewBox="0 0 512.000000 512.000000"><path d="M0 256v256h512V0H0v256zM274.8 77.1c46.3 5 89.6 28.1 119 63.3 51.5 61.8 56.2 148.7 11.7 215.6-17.2 25.9-40 46-68.5 60.3-43.7 22-90.3 25.6-137.5 10.5-12.9-4.1-36.6-16.1-47.7-24-72.5-52.4-96.3-147.5-56.7-227.1C128.4 108.8 200.8 69 274.8 77.1z"/><path d="M236.1 101.2c-11.4 1.4-29.4 6.4-41 11.3-19.1 8.1-33.8 18.2-49.1 33.5-15.4 15.5-25.4 30.1-33.5 49.1-21.7 51.1-14.9 107.7 18.5 154.1 5.8 8.1 23.7 26 31.8 31.8 46.4 33.4 103 40.2 154.1 18.5 19-8.1 33.7-18.1 49.1-33.5 15.4-15.5 25.4-30.1 33.6-49.4 21.6-50.8 14.7-107.6-18.6-153.8-5.9-8.2-23.8-26.1-31.8-31.8-29.1-20.9-60.9-31.3-94.7-30.9-6 .1-14.3.6-18.4 1.1z"/></svg>