<svg class="icon" xmlns="http://www.w3.org/2000/svg" viewBox="0 0 32 32"><path d="M16 0c8.823 0 16 7.177 16 16s-7.177 16-16 16S0 24.823 0 16 7.177 0 16 0zm0 30.769c8.143 0 14.769-6.626 14.769-14.769S24.143 1.231 16 1.231 1.231 7.857 1.231 16 7.857 30.769 16 30.769zm0-8c.34 0 .615.275.615.615v1.231a.615.615 0 11-1.23 0v-1.231c0-.34.275-.615.615-.615zm.07-17.23c2.639.037 4.816 2.214 4.853 4.852a4.899 4.899 0 01-2.257 4.209c-1.265.817-2.05 2.332-2.05 3.958v1.749a.615.615 0 11-1.23 0v-1.749c0-2.07.977-3.936 2.614-4.992a3.675 3.675 0 001.693-3.158c-.027-1.945-1.694-3.612-3.639-3.639-.991-.023-1.936.363-2.646 1.063s-1.1 1.633-1.1 2.629a.615.615 0 11-1.23 0c0-1.328.521-2.573 1.466-3.505a4.886 4.886 0 013.455-1.418l.071.001z"/></svg>
