<svg class="icon" xmlns="http://www.w3.org/2000/svg" viewBox="0 0 32 32"><path d="M32 16c0 4.684-2.023 8.903-5.24 11.831l.016.013-.532.445c-.053.045-.111.083-.165.126-.244.198-.495.388-.75.572-.106.077-.212.154-.319.227a16.204 16.204 0 01-2.229 1.274l-.133.061c-1.2.55-2.479.956-3.815 1.196l-.109.02c-.417.072-.84.128-1.267.167l-.162.012c-.427.034-.857.057-1.293.057a16 16 0 01-1.303-.058l-.158-.012a15.827 15.827 0 01-1.278-.17l-.107-.019a15.864 15.864 0 01-3.87-1.225l-.083-.037a16.192 16.192 0 01-1.094-.57c-.072-.041-.143-.081-.214-.123a16.274 16.274 0 01-2.092-1.469c-.034-.028-.07-.051-.104-.08L5.18 27.8l.015-.013C2.006 24.86.002 20.66.002 16c0-8.822 7.178-16 16-16s16 7.178 16 16zM1.164 16c0 4.376 1.906 8.315 4.931 11.034.145-.104.291-.197.438-.277l4.6-2.509c.417-.228.676-.664.676-1.139v-1.684c-.358-.474-1.328-1.871-1.8-3.717a2.117 2.117 0 01-.78-1.641v-2.063c0-.504.186-.994.516-1.378V9.911c-.03-.302-.137-2.006 1.096-3.412C11.913 5.275 13.649 4.656 16 4.656s4.087.62 5.159 1.844c1.233 1.406 1.126 3.11 1.096 3.412v2.715c.331.385.516.874.516 1.378v2.063c0 .829-.476 1.563-1.213 1.914a11.857 11.857 0 01-1.522 2.981 8.989 8.989 0 01-.359.475v1.72c0 .494.275.938.717 1.16l4.926 2.463c.176.088.349.194.52.312 3.063-2.719 4.997-6.683 4.997-11.091 0-8.181-6.655-14.836-14.836-14.836S1.165 7.821 1.165 16.002zm23.539 12.004c.063-.045.127-.089.189-.136l-.093-.048-4.926-2.463a2.446 2.446 0 01-1.36-2.2v-2.152l.144-.165c.127-.146.276-.337.428-.552a10.753 10.753 0 001.452-2.928l.093-.288.289-.089a.972.972 0 00.687-.916v-2.063a.952.952 0 00-.324-.712l-.192-.173.005-3.317c.001-.012.162-1.437-.822-2.549-.844-.952-2.281-1.435-4.274-1.435-2.001 0-3.443.487-4.284 1.446-.986 1.124-.814 2.523-.812 2.537l.005.076v3.241l-.192.173a.952.952 0 00-.324.712v2.063c0 .326.168.629.447.81l.198.129.053.23c.475 2.072 1.733 3.602 1.746 3.617l.134.162.001 2.096c0 .901-.492 1.729-1.283 2.161l-4.6 2.509a1.561 1.561 0 01-.056.031l.077.061a15.262 15.262 0 001.031.705c.287.179.578.351.875.51.042.023.085.044.127.066a15.535 15.535 0 001 .478 15.579 15.579 0 001.152.438c.737.247 1.494.436 2.263.565l.049.009c.364.059.731.103 1.1.136.063.006.126.01.19.015.366.027.734.045 1.103.045.365 0 .728-.017 1.089-.045.065-.005.13-.009.194-.015a15.32 15.32 0 001.122-.139 14.74 14.74 0 001.143-.234l.003-.001c.374-.093.743-.2 1.108-.321l.074-.025a14.868 14.868 0 002.029-.859l.19-.097c.285-.151.564-.313.839-.483.098-.061.194-.124.291-.187.21-.137.417-.28.621-.428z"/></svg>
