<svg class="icon" xmlns="http://www.w3.org/2000/svg" viewBox="0 0 32 32"><path d="M30.4 3.733a1.6 1.6 0 011.6 1.6v21.333a1.6 1.6 0 01-1.6 1.6H1.6a1.6 1.6 0 01-1.6-1.6V5.333a1.6 1.6 0 011.6-1.6h28.8zm.533 22.934V5.334a.533.533 0 00-.533-.533H1.6a.533.533 0 00-.533.533v21.333c0 .295.239.533.533.533h28.8a.533.533 0 00.533-.533zM29.38 5.869a.533.533 0 01.297.939L17.373 17.143a2.13 2.13 0 01-2.745 0L2.324 6.808a.533.533 0 01.686-.817l12.304 10.336c.397.334.976.334 1.373 0L28.991 5.991a.533.533 0 01.389-.123zM10.258 17.071a.532.532 0 01.265.893l-7.467 8a.534.534 0 01-.909-.203.53.53 0 01.13-.524l7.467-8a.534.534 0 01.514-.166zm11.999.165l7.467 8a.533.533 0 01-.779.728l-7.467-8a.533.533 0 11.779-.727z"/></svg>
