<svg class="icon" xmlns="http://www.w3.org/2000/svg" viewBox="0 0 32 32"><path d="M29.333 0A2.641 2.641 0 0132 2.667v26.667a2.641 2.641 0 01-2.667 2.667H2.666a2.641 2.641 0 01-2.667-2.667V2.667A2.641 2.641 0 012.666 0h26.667zM16 30.933h4.267V20.266H25.6v-4.267h-5.333v-3.733c0-.907.693-1.6 1.6-1.6h4.267V6.399h-4.8c-2.987.267-5.333 2.827-5.333 5.867v3.733h-4.267v4.267h4.267v10.667zm14.933-1.6V2.666c0-.907-.693-1.6-1.6-1.6H2.666c-.907 0-1.6.693-1.6 1.6v26.667c0 .907.693 1.6 1.6 1.6h12.267v-9.6h-4.267v-6.4h4.267v-2.667c0-3.573 2.773-6.613 6.347-6.933h5.92v6.4h-5.333c-.32 0-.533.213-.533.533v2.667h5.333v6.4h-5.333v9.6h8c.907 0 1.6-.693 1.6-1.6z"/></svg>
