<svg class="icon" xmlns="http://www.w3.org/2000/svg" viewBox="0 0 32 32"><path d="M31.725 14.602a.55.55 0 01-.372.95.544.544 0 01-.373-.146l-1.82-1.69v18.285H2.843V13.717l-1.82 1.69a.55.55 0 01-.746-.803L16.002.002l5.483 5.091v-2.15h5.483v7.241zM22.579 4.038v2.071l3.29 3.054V4.037h-3.29zM12.71 30.903h6.579V19.355a.514.514 0 00-.514-.514h-5.552a.514.514 0 00-.514.514v11.548zm15.352 0V12.696L16 1.496 3.938 12.697v18.207h7.676V19.356c0-.888.722-1.61 1.61-1.61h5.552c.888 0 1.61.722 1.61 1.61v11.548h7.676z"/></svg>
