<svg class="icon" xmlns="http://www.w3.org/2000/svg" viewBox="0 0 32 32"><path d="M4.32.267c1.12 0 2.187.427 2.987 1.28.8.8 1.28 1.867 1.227 2.987 0 1.173-.48 2.24-1.28 3.04s-1.813 1.227-2.88 1.227h-.107C3.2 8.854 2.08 8.374 1.28 7.574S0 5.707 0 4.534c0-1.12.427-2.187 1.28-3.04.8-.8 1.867-1.227 3.04-1.227zm2.187 6.56c.64-.587.96-1.44.96-2.293s-.32-1.653-.96-2.293a3.112 3.112 0 00-2.187-.907c-.907 0-1.707.32-2.293.907-.64.64-.96 1.44-.96 2.293s.32 1.707.96 2.293c.587.587 1.44.907 2.24.907.853.053 1.653-.32 2.24-.907zM6.4 9.867c.853 0 1.6.747 1.6 1.6v18.72c0 .8-.747 1.547-1.6 1.547H2.133c-.853 0-1.6-.747-1.6-1.6V11.467c0-.907.693-1.6 1.547-1.6H6.4zm.533 20.32v-18.72c0-.267-.267-.533-.533-.533H2.08c-.267 0-.48.267-.48.533v18.667c0 .267.267.533.533.533H6.4c.267 0 .533-.213.533-.48zm17.6-20.854c4.213 0 7.467 3.307 7.467 7.573v13.76c0 .533-.533 1.067-1.067 1.067H25.6c-.533 0-1.067-.533-1.067-1.067V19.199c0-.96-.213-1.707-.747-2.187a3.144 3.144 0 00-2.24-.907c-1.653 0-2.933 1.387-2.933 3.147v11.52c0 .587-.587.96-1.067.96h-5.867c-.48 0-1.067-.373-1.067-.96V10.879c0-.587.587-1.013 1.067-1.013h5.333c.533 0 1.067.533 1.067 1.067v.747c1.28-1.44 3.253-2.347 5.333-2.347h1.12zm6.4 21.28V16.906c0-3.627-2.773-6.507-6.347-6.507h-1.12c-1.973 0-3.84.96-4.907 2.453l-1.493 1.493v-3.36l-.053-.053h-5.28v19.733H17.6V19.252c0-2.347 1.76-4.16 4-4.213 1.12 0 2.187.427 2.987 1.227.693.693 1.013 1.653 1.013 2.933l.053 11.467h5.227z"/></svg>
