<svg class="icon" xmlns="http://www.w3.org/2000/svg" viewBox="0 0 32 32"><path d="M27.966 26.605c-.003.005-.003.011-.008.015-.007.01-.018.013-.025.022a15.96 15.96 0 01-11.379 5.343l-.001.001-.311.008c-.081.003-.161.006-.242.006s-.162-.003-.243-.005l-.311-.008-.001-.001a15.962 15.962 0 01-11.37-5.332c-.01-.013-.025-.019-.035-.033-.004-.005-.004-.01-.007-.015A15.931 15.931 0 01-.001 16.001 15.93 15.93 0 014.343 5.059l.001-.001.007-.007A15.95 15.95 0 0115.446.016l.001-.001.311-.008c.081-.003.161-.005.242-.005s.162.003.242.005l.312.008.001.001A15.955 15.955 0 0127.65 5.051l.007.007v.001A15.939 15.939 0 0132 16.002a15.93 15.93 0 01-4.034 10.605zM1.117 16.552a14.827 14.827 0 003.48 9.02 20.365 20.365 0 014.475-2.279 20.387 20.387 0 01-1.332-6.74H1.118zm3.781-10.47a14.836 14.836 0 00-3.781 9.367h6.622a20.378 20.378 0 011.517-7.225 20.297 20.297 0 01-4.359-2.142zm25.985 9.366a14.836 14.836 0 00-3.781-9.367 20.274 20.274 0 01-4.359 2.142 20.357 20.357 0 011.517 7.225h6.622zM15.448 8.255V1.458a19.318 19.318 0 00-4.674 6.089c1.513.425 3.079.663 4.674.708zm0 1.104a20.408 20.408 0 01-5.134-.793 19.27 19.27 0 00-1.471 6.883h6.605V9.36zm1.104 0v6.089h6.606a19.27 19.27 0 00-1.471-6.883 20.333 20.333 0 01-5.135.793zm0-1.104a19.272 19.272 0 004.674-.708 19.289 19.289 0 00-4.674-6.089v6.797zm5.743-1.043a19.224 19.224 0 004.025-1.94 14.857 14.857 0 00-8.377-4.038 20.377 20.377 0 014.352 5.978zm-12.59 0a20.363 20.363 0 014.353-5.978 14.857 14.857 0 00-8.377 4.038 19.167 19.167 0 004.024 1.94zm-.862 9.34a19.264 19.264 0 001.275 6.388 20.326 20.326 0 015.33-.85v-5.538H8.843zm6.605 6.641a19.23 19.23 0 00-4.902.773 19.297 19.297 0 004.902 6.575v-7.348zm1.104 7.348a19.31 19.31 0 004.902-6.575 19.185 19.185 0 00-4.902-.772v7.348zm0-8.451a20.32 20.32 0 015.33.851 19.275 19.275 0 001.276-6.389h-6.605v5.538zm7.708-5.538a20.382 20.382 0 01-1.332 6.74 20.365 20.365 0 014.475 2.279 14.824 14.824 0 003.48-9.02h-6.622zM5.347 26.398a14.864 14.864 0 008.711 4.368 20.363 20.363 0 01-4.563-6.454 19.217 19.217 0 00-4.147 2.086zm12.596 4.368a14.864 14.864 0 008.711-4.368 19.24 19.24 0 00-4.147-2.086 20.357 20.357 0 01-4.563 6.454z"/></svg>
